HIERARCHY
ROOT Hips
{
	OFFSET 0.000000 0.000000 0.000000
	CHANNELS 6 Xposition Yposition Zposition Zrotation Yrotation Xrotation 
	JOINT LHipJoint
	{
		OFFSET 0.000000 0.000000 0.000000
		CHANNELS 3 Zrotation Yrotation Xrotation
		JOINT LeftUpLeg
		{
			OFFSET 1.363060 -1.794630 0.839290
			CHANNELS 3 Zrotation Yrotation Xrotation
			JOINT LeftLeg
			{
				OFFSET 2.448110 -6.726130 0.000000
				CHANNELS 3 Zrotation Yrotation Xrotation
				JOINT LeftFoot
				{
					OFFSET 2.562200 -7.039590 0.000000
					CHANNELS 3 Zrotation Yrotation Xrotation
					JOINT LeftToeBase
					{
						OFFSET 0.157640 -0.433110 2.322550
						CHANNELS 3 Zrotation Yrotation Xrotation
						End Site
						{
							OFFSET 0.000000 0.000000 0.000000
						}
					}
				}
			}
		}
	}
	JOINT RHipJoint
	{
		OFFSET 0.000000 0.000000 0.000000
		CHANNELS 3 Zrotation Yrotation Xrotation
		JOINT RightUpLeg
		{
			OFFSET -1.305520 -1.794630 0.839290
			CHANNELS 3 Zrotation Yrotation Xrotation
			JOINT RightLeg
			{
				OFFSET -2.542530 -6.985550 0.000000
				CHANNELS 3 Zrotation Yrotation Xrotation
				JOINT RightFoot
				{
					OFFSET -2.568260 -7.056230 0.000000
					CHANNELS 3 Zrotation Yrotation Xrotation
					JOINT RightToeBase
					{
						OFFSET -0.164730 -0.452590 2.363150
						CHANNELS 3 Zrotation Yrotation Xrotation
						End Site
						{
							OFFSET 0.000000 0.000000 0.000000
						}
					}
				}
			}
		}
	}
	JOINT LowerBack
	{
		OFFSET 0.000000 0.000000 0.000000
		CHANNELS 3 Zrotation Yrotation Xrotation
		JOINT Spine
		{
			OFFSET 0.028270 2.035590 -0.193380
			CHANNELS 3 Zrotation Yrotation Xrotation
			JOINT Spine1
			{
				OFFSET 0.056720 2.048850 -0.042750
				CHANNELS 3 Zrotation Yrotation Xrotation
				JOINT Neck
				{
					OFFSET 0.000000 0.000000 0.000000
					CHANNELS 3 Zrotation Yrotation Xrotation
					JOINT Neck1
					{
						OFFSET -0.054170 1.746240 0.172020
						CHANNELS 3 Zrotation Yrotation Xrotation
						JOINT Head
						{
							OFFSET 0.104070 1.761360 -0.123970
							CHANNELS 3 Zrotation Yrotation Xrotation
							End Site
							{
								OFFSET 0.000000 0.000000 0.000000
							}
						}
					}
				}
				JOINT LeftShoulder
				{
					OFFSET 0.000000 0.000000 0.000000
					CHANNELS 3 Zrotation Yrotation Xrotation
					JOINT LeftArm
					{
						OFFSET 3.362410 1.200890 -0.311210
						CHANNELS 3 Zrotation Yrotation Xrotation
						JOINT LeftForeArm
						{
							OFFSET 4.983000 -0.000000 -0.000000
							CHANNELS 3 Zrotation Yrotation Xrotation
							JOINT LeftHand
							{
								OFFSET 3.483560 -0.000000 -0.000000
								CHANNELS 3 Zrotation Yrotation Xrotation
								JOINT LeftFingerBase
								{
									OFFSET 0.000000 0.000000 0.000000
									CHANNELS 3 Zrotation Yrotation Xrotation
									JOINT LeftHandIndex1
									{
										OFFSET 0.715260 -0.000000 -0.000000
										CHANNELS 3 Zrotation Yrotation Xrotation
										End Site
										{
											OFFSET 0.000000 0.000000 0.000000
										}
									}
								}
								JOINT LThumb
								{
									OFFSET 0.000000 0.000000 0.000000
									CHANNELS 3 Zrotation Yrotation Xrotation
									End Site
									{
										OFFSET 0.000000 0.000000 0.000000
									}
								}
							}
						}
					}
				}
				JOINT RightShoulder
				{
					OFFSET 0.000000 0.000000 0.000000
					CHANNELS 3 Zrotation Yrotation Xrotation
					JOINT RightArm
					{
						OFFSET -3.136600 1.374050 -0.404650
						CHANNELS 3 Zrotation Yrotation Xrotation
						JOINT RightForeArm
						{
							OFFSET -5.241900 -0.000000 -0.000000
							CHANNELS 3 Zrotation Yrotation Xrotation
							JOINT RightHand
							{
								OFFSET -3.444170 -0.000000 -0.000000
								CHANNELS 3 Zrotation Yrotation Xrotation
								JOINT RightFingerBase
								{
									OFFSET 0.000000 0.000000 0.000000
									CHANNELS 3 Zrotation Yrotation Xrotation
									JOINT RightHandIndex1
									{
										OFFSET -0.622530 -0.000000 -0.000000
										CHANNELS 3 Zrotation Yrotation Xrotation
										End Site
										{
											OFFSET 0.000000 0.000000 0.000000
										}
									}
								}
								JOINT RThumb
								{
									OFFSET 0.000000 0.000000 0.000000
									CHANNELS 3 Zrotation Yrotation Xrotation
									End Site
									{
										OFFSET 0.000000 0.000000 0.000000
									}
								}
							}
						}
					}
				}
			}
		}
	}
}
MOTION
Frames: 11
Frame Time: 0.008333
32.554178 17.678781 5.673692 169.539883 -83.045048 -167.193718 -3.917324 -2.158990 -0.258675 -18.839993 -2.659213 -12.558159 0.193507 8.314830 21.987146 0.598227 -0.019824 3.084814 0.173000 2.679300 7.387200 0.381863 2.117026 -2.777000 8.957249 5.740333 -40.703071 -14.626625 -20.094396 75.515649 -40.036435 18.135029 -157.431611 -0.944100 -6.188400 17.332000 -3.157693 -2.096582 6.806582 0.473823 -2.457538 -5.132837 4.627115 -1.574142 -3.096314 -4.150839 -2.674543 -18.725027 6.351339 -3.146945 7.753471 2.659300 -1.266400 8.523900 4.995173 3.148732 0.154757 -91.646149 -4.694331 39.303696 51.549692 -58.323661 -23.050601 -0.487340 1.867972 -3.889819 11.524908 10.531803 1.801000 -7.125000 0.000000 0.000000 -12.869200 38.442400 2.120200 -2.858556 -3.921970 -2.398755 80.719158 -15.005247 15.367134 -11.477028 25.071891 -3.291087 -0.112771 0.776157 14.745595 -9.073424 -8.611004 1.435500 7.125000 0.000000 0.000000 15.674300 -38.967000 2.399300 
32.466531 17.712748 5.679555 165.783342 -83.610766 -163.732158 -3.955401 -2.198650 -0.205038 -19.432624 -2.985436 -11.373197 0.095688 8.022313 21.208760 0.522473 0.301731 2.994928 0.166100 2.625500 7.237700 0.272862 2.085410 -2.903071 8.295960 5.704215 -44.007496 -13.710640 -19.900076 72.761741 -39.922897 17.897378 -157.004547 -1.013100 -6.404100 17.961500 -3.466662 -2.423761 7.368115 0.479899 -2.916428 -5.091177 4.717910 -1.824723 -3.197955 -4.089623 -2.538360 -18.911817 6.334656 -2.979494 7.867779 2.653400 -1.180800 8.612600 4.969867 3.173738 0.119707 -91.264099 -6.425300 39.652395 52.294036 -58.489630 -23.511872 -0.486570 1.814348 -3.570047 10.967768 9.857947 1.594700 -7.125000 0.000000 0.000000 -13.200800 37.797000 2.391000 -2.847784 -3.996630 -2.423510 80.433474 -15.649588 15.078958 -11.252533 24.769781 -3.202924 -0.116694 0.773466 14.578856 -8.723308 -8.606003 1.375900 7.125000 0.000000 0.000000 15.966700 -38.931700 2.461100 
32.377469 17.743278 5.677028 160.866629 -84.340321 -159.128930 -3.944201 -2.248312 -0.178398 -20.021627 -3.281542 -10.185251 0.011368 7.752231 20.514853 0.510159 0.342751 2.972974 0.163000 2.601000 7.169800 0.185389 2.039272 -3.024658 7.662101 5.524470 -47.242237 -12.891963 -19.699045 70.330425 -39.868113 18.027489 -156.596392 -1.198000 -6.944800 19.551900 -3.835561 -2.835716 7.733899 0.497263 -3.473993 -4.966446 4.851030 -2.135998 -2.929474 -3.993896 -2.387299 -19.211750 6.313963 -2.797730 7.923311 2.637300 -1.084400 8.677100 4.949798 3.228249 0.092073 -90.805304 -8.376383 39.948553 52.963541 -58.642307 -23.968681 -0.494274 1.789890 -3.278235 10.691102 9.738007 1.539600 -7.125000 0.000000 0.000000 -13.397900 37.688700 2.464700 -2.850060 -4.095350 -2.429855 80.216193 -16.073616 14.881939 -11.126786 24.625169 -3.166710 -0.118918 0.765173 14.588354 -8.222839 -8.363773 1.258400 7.125000 0.000000 0.000000 16.323400 -38.649400 2.636900 
32.285779 17.768450 5.667728 157.246721 -85.086152 -155.895151 -3.916041 -2.246772 -0.108896 -20.298091 -3.481544 -9.018338 -0.064699 7.507350 19.888049 0.543864 0.190372 3.056303 0.163000 2.601400 7.171000 0.116641 2.000902 -3.109925 7.303918 5.388326 -50.187970 -12.357384 -19.548909 68.743966 -39.838628 18.194932 -156.291529 -1.324600 -7.288900 20.574100 -4.070698 -3.184309 8.532043 0.580646 -3.985867 -4.976772 5.197774 -2.393600 -3.298615 -4.019545 -2.227350 -19.220799 6.258054 -2.569065 8.005481 2.628100 -0.984700 8.723600 4.944178 3.224845 0.065451 -90.459349 -9.648565 40.269036 53.639601 -58.799644 -24.408013 -0.488461 1.771445 -3.089363 10.628123 9.484153 1.485800 -7.125000 0.000000 0.000000 -13.402300 37.454300 2.544400 -2.818548 -4.141256 -2.469696 79.781763 -16.958046 14.845015 -11.057779 24.550864 -3.150923 -0.113343 0.762859 14.858447 -7.980795 -8.031595 1.175200 7.125000 0.000000 0.000000 16.441000 -38.307600 2.800200 
32.193178 17.794229 5.660954 152.829832 -85.804623 -151.811269 -3.849011 -2.242209 -0.057524 -20.598924 -3.721594 -7.862515 -0.137851 7.259015 19.251962 0.557833 0.121358 3.099993 0.162300 2.595700 7.155000 0.076149 1.963789 -3.194279 6.895854 5.274880 -53.204864 -11.783622 -19.366864 67.029402 -39.806717 18.325536 -155.989889 -1.438200 -7.582100 21.451900 -4.223796 -3.548163 9.129078 0.647795 -4.499487 -4.944226 5.445251 -2.659750 -3.433549 -3.993269 -2.070483 -19.270130 6.209249 -2.360289 8.048343 2.611900 -0.889400 8.748700 4.930527 3.243367 0.040356 -90.025966 -11.107544 40.543353 54.333764 -58.948444 -24.871951 -0.487344 1.747758 -2.923196 10.473151 9.266779 1.428800 -7.125000 0.000000 0.000000 -13.488700 37.255900 2.628700 -2.796395 -4.200807 -2.497338 79.395787 -17.693183 14.825933 -10.979883 24.474224 -3.133297 -0.111141 0.759499 14.967879 -7.684344 -7.766545 1.095100 7.125000 0.000000 0.000000 16.620500 -38.026500 2.951900 
32.098051 17.817682 5.652058 148.297869 -86.530906 -147.593949 -3.754407 -2.212969 -0.001828 -20.785945 -3.949353 -6.741507 -0.206224 7.023261 18.646391 0.583926 0.000924 3.161412 0.162600 2.597700 7.160600 0.060258 1.935582 -3.266430 6.560497 5.194332 -56.133658 -11.322765 -19.204612 65.641729 -39.767029 18.411052 -155.676431 -1.535200 -7.822100 22.175000 -4.288067 -3.903250 9.707514 0.731078 -4.997869 -4.924677 5.716623 -2.911164 -3.600006 -3.981629 -1.916087 -19.258249 6.156975 -2.150989 8.074905 2.595800 -0.796700 8.754600 4.919736 3.260576 0.018017 -89.579636 -12.446676 40.811552 55.013088 -59.089961 -25.328614 -0.486936 1.727948 -2.824536 10.370125 9.113300 1.390500 -7.125000 0.000000 0.000000 -13.544900 37.119300 2.686600 -2.770388 -4.250826 -2.526619 78.973544 -18.468156 14.897832 -10.927801 24.439938 -3.127170 -0.107554 0.757467 15.070417 -7.451692 -7.479040 1.024600 7.125000 0.000000 0.000000 16.740900 -37.730900 3.100800 
31.999991 17.839113 5.641545 143.567024 -87.243213 -143.144043 -3.636060 -2.157477 0.058672 -20.873771 -4.171124 -5.669222 -0.270616 6.799888 18.067573 0.614097 -0.136680 3.226056 0.165000 2.616900 7.214000 0.068657 1.920009 -3.327444 6.275591 5.168786 -58.978594 -10.970980 -19.068354 64.568796 -39.709837 18.410649 -155.331564 -1.603400 -7.986000 22.671500 -4.270746 -4.237360 10.253663 0.826512 -5.463318 -4.919698 6.003927 -3.138182 -3.796434 -3.980076 -1.772163 -19.205783 6.098559 -1.953209 8.094920 2.576600 -0.711700 8.751300 4.911689 3.277285 -0.002287 -89.126545 -13.675601 41.090214 55.671548 -59.222149 -25.769911 -0.487853 1.709986 -2.805007 10.286962 8.996905 1.361500 -7.125000 0.000000 0.000000 -13.592400 37.018000 2.731000 -2.741678 -4.291198 -2.558218 78.521752 -19.288592 15.074156 -10.913301 24.467394 -3.137687 -0.104923 0.757558 15.088224 -7.263649 -7.235594 0.968300 7.125000 0.000000 0.000000 16.835900 -37.483700 3.225800 
31.899102 17.858927 5.629717 138.340541 -87.918159 -138.154110 -3.492001 -2.074533 0.121604 -20.893510 -4.374172 -4.662411 -0.330907 6.590574 17.516620 0.645253 -0.278221 3.281859 0.167800 2.638700 7.274500 0.104502 1.923539 -3.381206 6.005895 5.211076 -61.738810 -10.720808 -18.962394 63.794712 -39.639715 18.365713 -154.954018 -1.659600 -8.117800 23.072500 -4.187833 -4.547419 10.721400 0.925379 -5.888891 -4.917111 6.281593 -3.339643 -3.962733 -3.983220 -1.639144 -19.152693 6.048916 -1.769264 8.111979 2.561000 -0.632800 8.745800 4.903877 3.300329 -0.021068 -88.650853 -14.845482 41.380701 56.293997 -59.340336 -26.187234 -0.490790 1.693128 -2.879216 10.212811 8.922121 1.341300 -7.125000 0.000000 0.000000 -13.641200 36.956300 2.762400 -2.714539 -4.324356 -2.588514 78.072927 -20.114152 15.336472 -10.937376 24.559454 -3.165910 -0.104066 0.759244 14.996738 -7.094070 -7.042684 0.922200 7.125000 0.000000 0.000000 16.928700 -37.288400 3.329100 
31.795684 17.877630 5.616676 132.252167 -88.525345 -132.263325 -3.322378 -1.956848 0.193203 -20.872207 -4.540499 -3.740865 -0.386924 6.399154 17.000452 0.677163 -0.422671 3.325179 0.170500 2.659900 7.333400 0.170709 1.955304 -3.427121 5.724586 5.327493 -64.408752 -10.563797 -18.886500 63.300043 -39.562193 18.313135 -154.550127 -1.707900 -8.229200 23.412400 -4.084766 -4.812736 11.179187 1.029557 -6.257740 -4.936579 6.594160 -3.499925 -4.189945 -3.999363 -1.522673 -19.097152 5.992237 -1.603754 8.150267 2.541800 -0.564500 8.754300 4.898612 3.323049 -0.039977 -88.191285 -15.903182 41.694071 56.892757 -59.449774 -26.580768 -0.496690 1.676219 -3.035449 10.114293 8.865031 1.321300 -7.125000 0.000000 0.000000 -13.713100 36.910200 2.793500 -2.684668 -4.343889 -2.622480 77.605167 -20.984081 15.651226 -10.989911 24.694871 -3.205899 -0.104987 0.763281 14.771597 -6.965624 -6.917698 0.890700 7.125000 0.000000 0.000000 17.004800 -37.164100 3.399100 
31.689841 17.895523 5.602523 124.936396 -89.037123 -125.112339 -3.131951 -1.796378 0.275536 -20.833631 -4.651055 -2.906314 -0.439530 6.227777 16.516030 0.710151 -0.571000 3.357646 0.172100 2.672600 7.368500 0.262787 2.029076 -3.474592 5.417236 5.516552 -66.959747 -10.494212 -18.840390 63.074130 -39.492594 18.309312 -154.164608 -1.756100 -8.338500 23.746900 -3.979558 -5.027517 11.599026 1.129075 -6.562488 -4.960688 6.907022 -3.616930 -4.412044 -4.015359 -1.425750 -19.079792 5.944150 -1.464877 8.207977 2.524100 -0.507400 8.781800 4.893021 3.354029 -0.059205 -87.727812 -16.906410 42.029686 57.453344 -59.544709 -26.943093 -0.503079 1.657517 -3.264193 9.994875 8.790121 1.295600 -7.125000 0.000000 0.000000 -13.800000 36.846500 2.834200 -2.657270 -4.351116 -2.655240 77.162401 -21.863867 15.976806 -11.084847 24.896833 -3.265801 -0.109427 0.768221 14.451056 -6.802775 -6.872001 0.864000 7.125000 0.000000 0.000000 17.129900 -37.114100 3.447800 
31.582077 17.912708 5.587461 116.460359 -89.440969 -116.776574 -2.944663 -1.593201 0.370691 -20.776006 -4.712295 -2.154610 -0.489214 6.080363 16.066237 0.741252 -0.707894 3.374253 0.172200 2.673100 7.369900 0.357229 2.148918 -3.532682 5.104282 5.776329 -69.370023 -10.506979 -18.822669 63.103603 -39.435083 18.357951 -153.817534 -1.785300 -8.403700 23.947100 -3.886155 -5.193106 11.956098 1.219327 -6.804299 -4.975426 7.190020 -3.694848 -4.577879 -4.018695 -1.340718 -19.113093 5.912359 -1.345670 8.268666 2.510600 -0.456200 8.820500 4.885667 3.397732 -0.078021 -87.247153 -17.887507 42.368579 57.972107 -59.623472 -27.275395 -0.508321 1.635602 -3.531843 9.848276 8.676645 1.260200 -7.125000 0.000000 0.000000 -13.903900 36.746500 2.891500 -2.634654 -4.347898 -2.682364 76.773554 -22.704785 16.286610 -11.211733 25.149335 -3.341067 -0.116708 0.773758 14.069058 -6.618991 -6.896521 0.842200 7.125000 0.000000 0.000000 17.290300 -37.130500 3.475300 
